<?xml version="1.0" encoding="UTF-8"?>
<svg width="24px" height="24px" viewBox="0 0 24 24" version="1.1" xmlns="http://www.w3.org/2000/svg" xmlns:xlink="http://www.w3.org/1999/xlink">
    <!-- Generator: Sketch 64 (93537) - https://sketch.com -->
    <title>ic/search</title>
    <desc>Created with Sketch.</desc>
    <g id="ic/search" stroke="none" stroke-width="1" fill="none" fill-rule="evenodd">
        <path d="M21.7815547,20.7207401 C22.072453,21.0116383 22.072453,21.4906565 21.7837213,21.7793469 C21.6431321,21.9253434 21.4499771,22.0040912 21.2511474,22.0040912 C21.056439,22.0040912 20.8628717,21.9236863 20.7207401,21.7815547 L16.0463232,17.1071378 C14.5173005,18.3904089 12.5897007,19.1072027 10.5536014,19.1072027 C5.83849344,19.1072027 2,15.2687093 2,10.5536014 C2,5.8370004 5.83562315,2 10.5536014,2 C15.2702023,2 19.1072027,5.83562315 19.1072027,10.5536014 C19.1072027,12.5897007 18.3904089,14.5173005 17.1071378,16.0463232 L21.7815547,20.7207401 Z M3.50152478,10.5536014 C3.50152478,14.4412427 6.66463925,17.6056779 10.5492386,17.6056779 C14.4351602,17.6056779 17.5969524,14.4399236 17.5969524,10.5536014 C17.5969524,6.66814072 14.4360196,3.50588757 10.5492386,3.50588757 C6.66377794,3.50588757 3.50152478,6.66682037 3.50152478,10.5536014 Z" id="Shape" stroke="#A9ACBC" stroke-width="0.2" fill="#A9ACBC" fill-rule="nonzero"></path>
    </g>
</svg>